<?xml version="1.0" encoding="utf-8"?>
<!-- Generator: Adobe Illustrator 16.0.0, SVG Export Plug-In . SVG Version: 6.00 Build 0)  -->
<!DOCTYPE svg PUBLIC "-//W3C//DTD SVG 1.1//EN" "http://www.w3.org/Graphics/SVG/1.1/DTD/svg11.dtd">
<svg version="1.1" id="Layer_1" xmlns="http://www.w3.org/2000/svg" xmlns:xlink="http://www.w3.org/1999/xlink" x="0px" y="0px"
	 width="181.606px" height="43.136px" viewBox="0 0 181.606 43.136" enable-background="new 0 0 181.606 43.136"
	 xml:space="preserve">
<path fill="#FFFFFF" d="M162.784,8.941h-0.049l8.591-8.591h-3.65l-18.299,18.301h3.648l8.98-8.98h0.049l-3.182,8.98h4.555
	l3.084-9.516l15.095-8.785h-4.36L162.784,8.941z M145.981,8.452l4.983-4.983h2.312c2.628,0,2.094,1.167,0.781,2.479
	c-1.167,1.167-3.137,2.504-5.643,2.504H145.981z M141.502,18.651h4.355l3.465-7.724c3.064-0.705,6.614-3.207,8.533-5.127
	c3.039-3.039,3.264-5.453-0.581-5.453h-6.837l-18.305,18.304h3.649l7.246-7.245h2.142L141.502,18.651z M119.269,9.501
	c-4.92,4.92-6.294,9.5-0.593,9.5c5.699,0,13.486-4.58,18.406-9.5C142.002,4.58,143.377,0,137.676,0
	C131.976,0,124.189,4.58,119.269,9.501 M133.293,9.501c-3.289,3.288-7.941,6.236-11.354,6.236s-2.17-2.948,1.118-6.236
	c3.289-3.289,7.942-6.236,11.354-6.236C137.823,3.265,136.582,6.212,133.293,9.501 M99.416,18.651h3.871L126.26,0.351h-3.869
	l-16.111,13.458h-0.048l10.463-13.458h-3.942l-16.33,13.458h-0.049l10.609-13.458h-3.895L89.51,18.651h3.871l15.77-12.752h0.049
	L99.416,18.651z M73.523,18.651h3.65L92.211,3.612h4.823l3.265-3.264H87.002l-3.264,3.264h4.824L73.523,18.651z M53.93,18.653
	h11.688l3.265-3.264h-8.039l4.36-4.361h7.82l3.264-3.264h-7.819l4.151-4.152h8.039l3.264-3.264H72.234L53.93,18.653z"/>
<path fill="#FFFFFF" d="M127.026,42.787h11.688l3.265-3.264h-8.039l4.36-4.361h7.819l3.265-3.264h-7.819l4.151-4.152h8.039
	l3.264-3.264h-11.688L127.026,42.787z M112.82,42.785h10.689l3.405-3.406h-7.04l14.895-14.894h-3.649L112.82,42.785z M110,32.001
	l4.399-4.4h2.536c1.462,0,1.928,0.656,0.421,2.164c-1.459,1.457-3.407,2.236-5.138,2.236H110z M102.333,39.667l4.714-4.713h2.705
	c2.133,0,1.646,1.221,0.473,2.393c-1.293,1.295-3.149,2.32-5.471,2.32H102.333z M95.563,42.789h6.647c3.788,0,8.362-2,11.73-5.367
	c2.295-2.295,2.365-3.773,1.125-4.162l0.048-0.047c1.905-0.605,4.19-1.746,6.207-3.764c2.969-2.969,2.948-4.967-0.948-4.967h-6.503
	L95.563,42.789z M87.021,42.785h3.508l18.3-18.3h-4.166L86.89,36.945l7.146-12.46H89.87l-18.3,18.3h3.507l11.974-11.973H87.1
	l-7.075,11.973h2.048l17.116-12.217h0.048L87.021,42.785z M55.475,42.787h11.688l3.265-3.264h-8.039l4.36-4.361h7.82l3.264-3.264
	h-7.819l4.151-4.152h8.039l3.264-3.264H73.78L55.475,42.787z M64.41,29.226c1.34-1.339,4.194-5.093-1.457-5.093
	c-4.75,0-9.72,3.364-12.058,5.703c-2.07,2.07-2.437,3.848-1.148,4.578l2.557,1.438c1.144,0.656,1.046,1.168,0.072,2.143
	c-1.413,1.414-3.774,2.021-5.015,2.021c-1.777,0-2.555-0.756-0.606-2.703l-3.723,0.072c-1.632,1.633-5.168,5.752,1.184,5.752
	c5.061,0,10.032-3.363,12.272-5.605c2.825-2.824,2.51-4.236,0.857-5.018l-2.287-1.07c-0.61-0.293-1.22-0.902,0.047-2.168
	c1.218-1.219,3.118-2.021,4.946-2.021c1.463,0,1.903,0.779,0.637,2.044L64.41,29.226z M29.616,42.785h3.776l18.3-18.3h-3.508
	L35.895,36.775h-0.049l4.847-12.291H36.77l-18.3,18.3h3.507L34.462,30.3h0.049L29.616,42.785z M2.375,42.787h11.688l3.265-3.264
	H9.289l4.36-4.361h7.82l3.264-3.264h-7.819l4.151-4.152h8.039l3.264-3.264H20.68L2.375,42.787z"/>
<path fill="#FFFFFF" d="M33.771,18.317c-0.708,0-1.31-0.358-1.631-0.983c-0.917-1.781,1.25-6.687,3.223-10.354
	c-2.642,1.68-6.033,3.908-8.48,5.515c-2.851,1.873-5.102,3.351-5.914,3.828c-1.246,0.734-2.089,0.088-2.317-0.127
	c-1.276-1.204-0.46-4.838,0.462-7.703c-0.608,0.508-1.239,1.043-1.826,1.54c-5.826,4.934-7.843,6.471-9.106,6.471
	c-0.609,0-1.139-0.282-1.456-0.772c-0.784-1.214,0.025-3.139,1.644-6.718C8.892,7.86,9.68,6.116,9.72,5.651
	c0-0.721,0.584-1.295,1.305-1.295s1.305,0.594,1.305,1.315c0,0.88-0.572,2.186-1.582,4.418c-0.375,0.828-0.893,1.975-1.262,2.927
	c1.703-1.239,4.34-3.472,6.116-4.976c5.207-4.408,5.875-4.972,6.972-4.102c0.213,0.169,0.864,0.81,0.282,1.944
	c-0.942,1.839-2.019,5.631-2.247,7.59c1.124-0.718,2.887-1.875,4.841-3.159c13.584-8.922,13.583-8.92,14.57-7.807
	c0.289,0.327,0.6,1.09-0.067,1.877c-1.324,1.559-4.88,8.649-5.399,11.188C39.889,14.313,49.315,5.53,52.662,2.07
	c0.501-0.518,1.327-0.531,1.845-0.031c0.518,0.501,0.532,1.327,0.031,1.845c-1.367,1.413-13.56,13.824-20.583,14.424
	C33.892,18.314,33.831,18.317,33.771,18.317z"/>
<path fill="#FFFFFF" d="M53.422,12.64h-0.049L58.22,0.351h-3.645L42.771,10.914l1.94,1.115l7.278-5.862 M51.989,6.167h0.049
	L47.143,18.65h3.776l18.3-18.3h-3.507L53.422,12.64"/>
<path fill="#FFFFFF" d="M1.305,12.529C0.584,12.529,0,11.944,0,11.224s0.584-1.305,1.305-1.305C2.553,9.875,8.902,7.441,9.72,5.651
	c0.214-0.613,1.144-1.051,1.792-0.913c0.705,0.152,0.676,1.189,0.524,1.894C11.531,8.974,3.028,12.529,1.305,12.529z"/>
</svg>
